HIERARCHY
ROOT Hips
{
    OFFSET 0.000000 0.000000 0.000000
    CHANNELS 6 Xposition Yposition Zposition Zrotation Xrotation Yrotation
    JOINT Spine
    {
        OFFSET -0.000000 8.226649 0.000000
        CHANNELS 3 Zrotation Xrotation Yrotation
        JOINT Spine1
        {
            OFFSET -0.000000 24.451035 0.000000
            CHANNELS 3 Zrotation Xrotation Yrotation
            JOINT Neck
            {
                OFFSET -0.000000 24.350622 2.213693
                CHANNELS 3 Zrotation Xrotation Yrotation
                JOINT Head
                {
                    OFFSET -0.000000 14.045498 -2.006500
                    CHANNELS 3 Zrotation Xrotation Yrotation
                    End Site
                    {
                        OFFSET -0.000000 25.081247 0.000000
                    }
                }
            }
            JOINT LeftShoulder
            {
                OFFSET 4.059404 22.255779 -0.272799
                CHANNELS 3 Zrotation Xrotation Yrotation
                JOINT LeftArm
                {
                    OFFSET 12.029813 0.000000 0.000000
                    CHANNELS 3 Zrotation Xrotation Yrotation
                    JOINT LeftForeArm
                    {
                        OFFSET 31.268898 0.000000 0.000000
                        CHANNELS 3 Zrotation Xrotation Yrotation
                        JOINT LeftHand
                        {
                            OFFSET 28.027487 0.000000 0.000000
                            CHANNELS 3 Zrotation Xrotation Yrotation
                            End Site
                            {
                                OFFSET 15.048748 0.000000 0.000000
                            }
                        }
                    }
                }
            }
            JOINT RightShoulder
            {
                OFFSET -3.964640 22.255779 -0.272799
                CHANNELS 3 Zrotation Xrotation Yrotation
                JOINT RightArm
                {
                    OFFSET -12.029813 0.000000 0.000000
                    CHANNELS 3 Zrotation Xrotation Yrotation
                    JOINT RightForeArm
                    {
                        OFFSET -31.268898 0.000000 0.000000
                        CHANNELS 3 Zrotation Xrotation Yrotation
                        JOINT RightHand
                        {
                            OFFSET -28.027487 0.000000 0.000000
                            CHANNELS 3 Zrotation Xrotation Yrotation
                            End Site
                            {
                                OFFSET -15.048748 0.000000 0.000000
                            }
                        }
                    }
                }
            }
        }
    }
    JOINT LeftUpLeg
    {
        OFFSET 10.032499 0.000000 0.000000
        CHANNELS 3 Zrotation Xrotation Yrotation
        JOINT LeftLeg
        {
            OFFSET -0.000000 -38.403259 0.000000
            CHANNELS 3 Zrotation Xrotation Yrotation
            JOINT LeftFoot
            {
                OFFSET -0.000000 -44.164154 0.000000
                CHANNELS 3 Zrotation Xrotation Yrotation
                JOINT LeftToeBase
                {
                    OFFSET -0.000000 -6.521124 15.048748
                    CHANNELS 3 Zrotation Xrotation Yrotation
                    End Site
                    {
                        OFFSET -0.000000 0.000000 4.013000
                    }
                }
            }
        }
    }
    JOINT RightUpLeg
    {
        OFFSET -10.032499 0.000000 0.000000
        CHANNELS 3 Zrotation Xrotation Yrotation
        JOINT RightLeg
        {
            OFFSET -0.000000 -38.403259 0.000000
            CHANNELS 3 Zrotation Xrotation Yrotation
            JOINT RightFoot
            {
                OFFSET -0.000000 -44.164154 0.000000
                CHANNELS 3 Zrotation Xrotation Yrotation
                JOINT RightToeBase
                {
                    OFFSET -0.000000 -6.521124 15.048748
                    CHANNELS 3 Zrotation Xrotation Yrotation
                    End Site
                    {
                        OFFSET -0.000000 0.000000 4.013000
                    }
                }
            }
        }
    }
}
MOTION
Frames:    14
Frame Time:    0.004000
-39.137062    85.550865    -211.206528    0.603107    0.294326    3.528550    -1.083083    -6.591820    0.691649    0.320087    1.692758    0.749368    8.136806    16.838966    14.497622    -13.758200    -3.754275    12.773614    22.823589    -0.689320    -3.915020    -16.657127    5.099773    -1.818826    2.477270    -3.241233    5.968968    17.643499    -2.533592    5.393627    -18.698303    -2.213627    -0.963895    8.599589    5.220552    10.527717    0.732369    -2.061002    -6.714046    -9.011528    -2.091563    0.932824    -1.960884    5.302221    -1.240555    -2.662951    2.613871    -2.641300    5.307575    -8.538720    16.712093    0.000000    0.000000    0.000000    -1.883609    -1.052303    -0.400981    0.935012    17.306797    0.499362    0.305740    -15.831566    -11.227754    0.000000    0.000000    0.000000    
-39.135765    85.550560    -211.204224    0.607746    0.300083    3.521012    -1.086210    -6.600465    0.695590    0.314311    1.699291    0.753663    8.155374    16.814011    14.501254    -13.770927    -3.733276    12.775823    22.822401    -0.686048    -3.915575    -16.651623    5.081365    -1.815926    2.484385    -3.236791    5.965426    17.603212    -2.532563    5.386141    -18.692001    -2.216416    -0.954960    8.594429    5.221908    10.514856    0.742461    -2.062968    -6.708200    -9.034842    -2.093673    0.939478    -1.962508    5.295967    -1.267790    -2.684627    2.634559    -2.573647    5.279606    -8.574060    16.710646    0.000000    0.000000    0.000000    -1.891215    -1.055902    -0.392248    0.935323    17.306803    0.512260    0.248010    -15.835779    -11.229212    0.000000    0.000000    0.000000    
-39.136295    85.550346    -211.202118    0.607650    0.301100    3.514853    -1.088718    -6.606601    0.699183    0.320158    1.709864    0.757296    8.152363    16.830082    14.492253    -13.784617    -3.775785    12.760257    22.833609    -0.706601    -3.921206    -16.676702    5.091340    -1.803414    2.493930    -3.237401    5.964472    17.597406    -2.534887    5.379964    -18.693972    -2.223580    -0.958394    8.598488    5.250678    10.517106    0.725492    -2.072448    -6.712765    -9.023920    -2.103476    0.932862    -1.974328    5.307545    -1.223698    -2.656188    2.599874    -2.573198    5.276156    -8.542879    16.655230    0.000000    0.000000    0.000000    -1.889374    -1.058466    -0.397910    0.932847    17.308859    0.553786    0.261532    -15.841041    -11.278038    0.000000    0.000000    0.000000    
-39.135509    85.549522    -211.200714    0.607022    0.300214    3.513051    -1.087352    -6.602803    0.697370    0.322099    1.706571    0.755347    8.148166    16.829643    14.496165    -13.786958    -3.780922    12.763282    22.824610    -0.683753    -3.914099    -16.665184    5.068512    -1.808122    2.496386    -3.250587    5.959432    17.574621    -2.547820    5.388998    -18.699537    -2.220210    -0.949091    8.601262    5.238917    10.508596    0.729951    -2.078658    -6.700911    -9.044642    -2.109748    0.933407    -1.972407    5.309000    -1.236505    -2.664541    2.619841    -2.564076    5.286522    -8.564379    16.671782    0.000000    0.000000    0.000000    -1.892258    -1.048712    -0.362705    0.948937    17.297533    0.495353    0.270395    -15.846020    -11.251595    0.000000    0.000000    0.000000    
-39.135399    85.548874    -211.198730    0.607221    0.296472    3.515430    -1.086631    -6.599335    0.697958    0.317846    1.708218    0.755893    8.160364    16.833231    14.497247    -13.801757    -3.787951    12.761394    22.812212    -0.682366    -3.922474    -16.649597    5.079684    -1.801200    2.500484    -3.262637    5.959955    17.571758    -2.560045    5.390093    -18.688089    -2.219504    -0.952329    8.593266    5.243179    10.511677    0.726125    -2.085309    -6.709817    -9.039809    -2.118306    0.956113    -1.969896    5.310645    -1.243428    -2.665579    2.619180    -2.611557    5.291592    -8.566021    16.720972    0.000000    0.000000    0.000000    -1.888389    -1.047045    -0.381563    0.931888    17.303482    0.516885    0.291442    -15.838941    -11.244163    0.000000    0.000000    0.000000    
-39.135773    85.548988    -211.200546    0.604515    0.299615    3.517178    -1.084548    -6.594195    0.697932    0.316721    1.700855    0.755753    8.182244    16.806442    14.490051    -13.825281    -3.745368    12.752824    22.828684    -0.690814    -3.925698    -16.671974    5.069606    -1.793901    2.500086    -3.261917    5.954918    17.596792    -2.556687    5.398573    -18.691952    -2.219184    -0.951302    8.598766    5.244206    10.512650    0.729073    -2.070182    -6.721668    -9.042377    -2.102881    0.955099    -1.963407    5.304721    -1.263292    -2.675555    2.620246    -2.548682    5.269924    -8.570500    16.679054    0.000000    0.000000    0.000000    -1.886528    -1.055213    -0.402379    0.928453    17.311386    0.525294    0.270477    -15.839016    -11.231638    0.000000    0.000000    0.000000    
-39.134346    85.548569    -211.197845    0.610910    0.300291    3.513192    -1.092285    -6.600223    0.697815    0.322606    1.711877    0.755974    8.173746    16.827480    14.488148    -13.836264    -3.798667    12.744158    22.828678    -0.693397    -3.926615    -16.628555    4.840362    -1.795324    2.402664    -3.173783    5.960108    17.626890    -2.467633    5.362814    -18.697824    -2.227333    -0.948651    8.598280    5.239987    10.506116    0.736364    -2.059738    -6.710782    -9.045348    -2.091421    0.946185    -1.977358    5.303321    -1.258801    -2.662277    2.628164    -2.588103    5.304327    -8.568151    16.706028    0.000000    0.000000    0.000000    -1.895976    -1.049136    -0.367404    0.944046    17.304359    0.541833    0.234442    -15.857566    -11.283193    0.000000    0.000000    0.000000    
-39.135258    85.547462    -211.198471    0.608915    0.299397    3.511738    -1.090028    -6.594750    0.700949    0.322468    1.712935    0.759040    8.166833    16.814547    14.491661    -13.823388    -3.801091    12.748722    22.807512    -0.697058    -3.929894    -16.606020    4.848926    -1.792180    2.401931    -3.173747    5.961873    17.611177    -2.471349    5.343539    -18.692314    -2.233190    -0.958286    8.593027    5.241873    10.507775    0.736516    -2.069226    -6.704319    -9.069729    -2.099959    0.931750    -1.979868    5.313695    -1.221745    -2.653628    2.606010    -2.565974    5.261930    -8.566238    16.661894    0.000000    0.000000    0.000000    -1.889658    -1.048250    -0.341991    0.943303    17.298534    0.458246    0.290325    -15.854756    -11.231408    0.000000    0.000000    0.000000    
-39.134674    85.547813    -211.198181    0.611140    0.310465    3.510262    -1.095558    -6.607672    0.701337    0.320467    1.715540    0.759778    8.187689    16.838682    14.495295    -13.846454    -3.842663    12.745585    22.824797    -0.695335    -3.928731    -16.621799    4.841483    -1.795618    2.413930    -3.190866    5.963770    17.601524    -2.486349    5.364457    -18.677902    -2.221408    -0.946441    8.583367    5.256188    10.498416    0.726817    -2.069379    -6.715596    -9.054569    -2.101981    0.950550    -1.984407    5.305534    -1.238335    -2.651226    2.606746    -2.577995    5.293807    -8.563376    16.687702    0.000000    0.000000    0.000000    -1.895109    -1.060178    -0.357049    0.945141    17.303429    0.502308    0.265444    -15.842767    -11.252404    0.000000    0.000000    0.000000    
-39.135773    85.546898    -211.195801    0.607248    0.298662    3.509934    -1.091285    -6.590702    0.700339    0.323443    1.712354    0.758441    8.195194    16.816860    14.488118    -13.862355    -3.812545    12.737227    22.817072    -0.693714    -3.927349    -16.616791    4.844938    -1.788613    2.405888    -3.191477    5.958560    17.606085    -2.487117    5.358633    -18.694059    -2.231051    -0.950546    8.602284    5.254720    10.503424    0.723927    -2.057392    -6.714691    -9.051485    -2.089017    0.936651    -1.966750    5.308764    -1.248313    -2.670802    2.619521    -2.616992    5.279314    -8.565850    16.721111    0.000000    0.000000    0.000000    -1.887868    -1.054713    -0.405690    0.935689    17.322435    0.522914    0.264788    -15.870648    -11.261528    0.000000    0.000000    0.000000    
-39.134235    85.546486    -211.194366    0.612298    0.305582    3.506712    -1.100804    -6.600388    0.701169    0.332230    1.718261    0.759651    8.164998    16.817020    14.507236    -13.816548    -3.848347    12.760842    22.811979    -0.697980    -3.926968    -16.617039    4.838957    -1.788497    2.402050    -3.190380    5.960538    17.622026    -2.482951    5.372622    -18.695015    -2.229568    -0.945768    8.600223    5.256804    10.500096    0.721324    -2.060128    -6.719476    -9.057398    -2.091737    0.934025    -1.982839    5.310820    -1.240052    -2.656060    2.604010    -2.559326    5.295001    -8.568373    16.676888    0.000000    0.000000    0.000000    -1.893866    -1.055303    -0.392621    0.930303    17.303635    0.536722    0.300352    -15.846666    -11.252018    0.000000    0.000000    0.000000    
-39.133587    85.546288    -211.193222    0.613221    0.302405    3.502166    -1.103042    -6.597744    0.705341    0.337037    1.721557    0.763954    8.179272    16.810354    14.483893    -13.841539    -3.830832    12.733679    22.806301    -0.689131    -3.930834    -16.614506    4.833594    -1.790279    2.404243    -3.197998    5.958508    17.636404    -2.489310    5.376661    -18.703362    -2.231453    -0.947961    8.603165    5.229970    10.498376    0.738959    -2.048708    -6.723674    -9.071934    -2.079243    0.932613    -1.983129    5.313979    -1.237248    -2.655608    2.607284    -2.598517    5.274507    -8.563715    16.699665    0.000000    0.000000    0.000000    -1.898429    -1.045442    -0.345619    0.947787    17.296503    0.517316    0.250494    -15.868499    -11.272715    0.000000    0.000000    0.000000    
-39.135586    85.545219    -211.195114    0.609058    0.313453    3.507948    -1.103060    -6.598936    0.701566    0.337590    1.709478    0.760173    8.171224    16.803059    14.501425    -13.813458    -3.836005    12.755686    22.810583    -0.687471    -3.929152    -16.619423    4.836282    -1.792013    2.403927    -3.184662    5.969759    17.605022    -2.482373    5.346585    -18.699806    -2.219004    -0.940340    8.606762    5.220603    10.491454    0.732931    -2.038180    -6.724662    -9.039265    -2.068968    0.934788    -1.984434    5.304026    -1.221109    -2.643085    2.598060    -2.571302    5.238625    -8.580662    16.666166    0.000000    0.000000    0.000000    -1.891577    -1.063981    -0.389866    0.944850    17.313725    0.509858    0.260416    -15.870107    -11.258135    0.000000    0.000000    0.000000    
-39.134884    85.546722    -211.191864    0.610321    0.310931    3.502463    -1.105260    -6.602549    0.703446    0.338452    1.720830    0.762129    8.179444    16.802336    14.487993    -13.823897    -3.841038    12.739205    22.815010    -0.692302    -3.926550    -16.627258    4.838753    -1.792122    2.409350    -3.195174    5.972063    17.624363    -2.489133    5.366990    -18.695795    -2.224890    -0.940711    8.606619    5.226009    10.492436    0.727632    -2.051663    -6.728578    -9.036985    -2.083688    0.946544    -1.980155    5.307602    -1.227278    -2.660780    2.611814    -2.569152    5.297310    -8.572406    16.674339    0.000000    0.000000    0.000000    -1.892059    -1.053376    -0.351364    0.938624    17.300978    0.540847    0.241188    -15.850489    -11.277545    0.000000    0.000000    0.000000    
